# xmcd
#
# Track frame offsets:
#	150
#	22469
#	26921
#	60261
#	75548
#	105654
#	108200
#	131901
#	138574
#	167154
#	169954
#	193931
#	202403
#	231454
#	244189
#	280783
#
# Disc length: 4228 seconds
#
# Revision: 1
# Processed by: cddbd v1.5.2PL0 Copyright (c) Steve Scherf et al.
# Submitted via: audiograbber 1.83.01
#
DISCID=f6108210
DTITLE=Grateful Dead - 90-07-12 RFK Stadium, Washington DC
DYEAR=1900
DGENRE=
TTITLE0=Let The Good Times Roll
TTITLE1=Tuning
TTITLE2=Feel Like A Stranger
TTITLE3=Tuning
TTITLE4=Bertha
TTITLE5=Tuning
TTITLE6=Just A Little Light
TTITLE7=Tuning
TTITLE8=Queen Jane Approximately
TTITLE9=Tuning
TTITLE10=Stagger Lee
TTITLE11=Tuning
TTITLE12=Cassidy
TTITLE13=Tuning
TTITLE14=Tennessee Jed
TTITLE15=The Music Never Stopped
EXTD=
EXTT0=
EXTT1=
EXTT2=
EXTT3=
EXTT4=
EXTT5=
EXTT6=
EXTT7=
EXTT8=
EXTT9=
EXTT10=
EXTT11=
EXTT12=
EXTT13=
EXTT14=
EXTT15=
PLAYORDER=
